<?xml version="1.0" encoding="UTF-8"?>
<svg id="Capa_2" data-name="Capa 2" xmlns="http://www.w3.org/2000/svg" viewBox="0 0 76.93 76.93">
  <defs>
    <style>
      .cls-1 {
        fill: #fff;
      }
    </style>
  </defs>
  <g id="Capa_1-2" data-name="Capa 1">
    <g>
      <path class="cls-1" d="m45.83,38.47c0,4.07-3.3,7.36-7.36,7.36s-7.36-3.3-7.36-7.36,3.3-7.36,7.36-7.36,7.36,3.3,7.36,7.36Z"/>
      <path class="cls-1" d="m55.69,25.44c-.35-.96-.92-1.83-1.65-2.54-.71-.73-1.58-1.3-2.54-1.65-.78-.3-1.95-.66-4.1-.76-2.33-.11-3.03-.13-8.93-.13s-6.6.02-8.93.13c-2.15.1-3.32.46-4.1.76-.96.35-1.83.92-2.54,1.65-.73.71-1.3,1.58-1.65,2.54-.3.78-.66,1.95-.76,4.1-.11,2.33-.13,3.03-.13,8.93s.02,6.6.13,8.93c.1,2.15.46,3.32.76,4.1.35.96.92,1.83,1.65,2.54.71.73,1.58,1.3,2.54,1.65.78.3,1.95.66,4.1.76,2.33.11,3.03.13,8.93.13s6.6-.02,8.93-.13c2.15-.1,3.32-.46,4.1-.76,1.93-.74,3.45-2.27,4.19-4.19.3-.78.66-1.95.76-4.1.11-2.33.13-3.03.13-8.93s-.02-6.6-.13-8.93c-.1-2.15-.46-3.32-.76-4.1Zm-17.22,24.37c-6.26,0-11.34-5.08-11.34-11.34s5.08-11.34,11.34-11.34,11.34,5.08,11.34,11.34-5.08,11.34-11.34,11.34Zm11.79-20.48c-1.46,0-2.65-1.19-2.65-2.65s1.19-2.65,2.65-2.65,2.65,1.19,2.65,2.65c0,1.46-1.19,2.65-2.65,2.65Z"/>
      <path class="cls-1" d="m38.47,0C17.23,0,0,17.23,0,38.47s17.23,38.47,38.47,38.47,38.47-17.23,38.47-38.47S59.71,0,38.47,0Zm21.96,47.57c-.11,2.35-.48,3.96-1.03,5.36-1.15,2.97-3.49,5.31-6.46,6.46-1.4.55-3.01.92-5.36,1.03-2.36.11-3.11.13-9.11.13s-6.75-.03-9.11-.13c-2.35-.11-3.96-.48-5.36-1.03-1.47-.55-2.81-1.42-3.91-2.55-1.12-1.1-1.99-2.44-2.55-3.91-.55-1.4-.92-3.01-1.03-5.36-.11-2.36-.13-3.11-.13-9.11s.03-6.75.13-9.11c.11-2.35.48-3.96,1.03-5.36.55-1.47,1.42-2.81,2.55-3.91,1.1-1.12,2.44-1.99,3.91-2.55,1.41-.55,3.01-.92,5.36-1.03,2.36-.11,3.11-.13,9.11-.13s6.75.03,9.11.13c2.35.11,3.96.48,5.36,1.03,1.47.55,2.81,1.42,3.91,2.55,1.12,1.1,1.99,2.44,2.55,3.91.55,1.41.92,3.01,1.03,5.36.11,2.36.13,3.11.13,9.11s-.03,6.75-.13,9.11Z"/>
    </g>
  </g>
</svg>