<?xml version="1.0" encoding="UTF-8"?>
<svg id="Capa_2" data-name="Capa 2" xmlns="http://www.w3.org/2000/svg" viewBox="0 0 76.05 76.05">
  <defs>
    <style>
      .cls-1 {
        fill: #fff;
      }
    </style>
  </defs>
  <g id="Capa_1-2" data-name="Capa 1">
    <g>
      <polygon class="cls-1" points="53.02 23.78 23.79 23.78 38.4 35.12 53.02 23.78"/>
      <path class="cls-1" d="M39.55,38.97c-.34.26-.74.39-1.15.39s-.81-.13-1.15-.39l-16.75-13.01c-.1.32-.18.65-.18,1v21.07c0,1.75,1.43,3.18,3.18,3.18h29.8c1.75,0,3.18-1.43,3.18-3.18v-21.07c0-.35-.07-.68-.18-1l-16.76,13.01Z"/>
      <path class="cls-1" d="M38.03,0h0C17.03,0,0,17.03,0,38.03h0c0,21,17.03,38.03,38.03,38.03h0c21,0,38.03-17.03,38.03-38.03h0C76.05,17.03,59.03,0,38.03,0ZM60.22,48.02c0,3.82-3.1,6.92-6.92,6.92h-29.8c-3.82,0-6.92-3.1-6.92-6.92v-21.07c0-3.82,3.1-6.92,6.92-6.92h29.8c3.82,0,6.92,3.1,6.92,6.92v21.07Z"/>
    </g>
  </g>
</svg>