<?xml version="1.0" encoding="UTF-8"?>
<svg id="Capa_2" data-name="Capa 2" xmlns="http://www.w3.org/2000/svg" viewBox="0 0 77.12 77.12">
  <defs>
    <style>
      .cls-1 {
        fill: #fff;
      }
    </style>
  </defs>
  <g id="Capa_1-2" data-name="Capa 1">
    <g>
      <path class="cls-1" d="M39.78,20.27v9.53c0,.68-.55,1.22-1.22,1.22s-1.22-.55-1.22-1.22v-9.53h-13.47c-1.52,5.16-2.39,11.08-2.5,17.23v2.45c.1,6.15.98,12.06,2.5,17.23h13.47v-8.6c0-.68.55-1.22,1.22-1.22s1.22.55,1.22,1.22v8.6h13.47c1.52-5.16,2.39-11.08,2.5-17.23v-2.45c-.1-6.15-.98-12.06-2.5-17.23h-13.47ZM33.46,35.14l-1.62,7.29c-.07.28-.22.41-.47.41h-.7c-.25,0-.4-.14-.46-.42l-1-4.45c-.12-.53-.19-1.08-.19-1.08h-.03s-.07.54-.18,1.08l-1.01,4.45c-.06.28-.21.42-.46.42h-.71c-.25,0-.4-.14-.46-.42l-1.56-7.28c-.07-.32.06-.53.36-.53h.5c.24,0,.39.14.45.43l1.02,5.26c.09.46.11.87.11.87h.02s.04-.39.15-.87l1.17-5.27c.07-.28.22-.42.47-.42h.34c.25,0,.4.14.45.42l1.16,5.27c.11.47.15.87.15.87h.02s.03-.41.12-.87l1.08-5.26c.05-.29.2-.43.46-.43h.47c.3,0,.44.21.37.53ZM42.98,35.14l-1.62,7.29c-.07.28-.22.41-.47.41h-.7c-.25,0-.4-.14-.46-.42l-1-4.45c-.12-.53-.19-1.08-.19-1.08h-.03s-.07.54-.18,1.08l-1.01,4.45c-.06.28-.21.42-.46.42h-.71c-.25,0-.4-.14-.46-.42l-1.56-7.28c-.07-.32.06-.53.36-.53h.5c.24,0,.39.14.45.43l1.02,5.26c.09.46.11.87.11.87h.02s.04-.39.15-.87l1.17-5.27c.07-.28.22-.42.47-.42h.34c.25,0,.4.14.45.42l1.16,5.27c.11.47.15.87.15.87h.02s.03-.41.12-.87l1.08-5.26c.05-.29.2-.43.46-.43h.47c.3,0,.44.21.37.53ZM52.5,35.14l-1.62,7.29c-.07.28-.22.41-.47.41h-.7c-.25,0-.4-.14-.46-.42l-1-4.45c-.12-.53-.19-1.08-.19-1.08h-.03s-.07.54-.18,1.08l-1.01,4.45c-.06.28-.21.42-.46.42h-.71c-.25,0-.4-.14-.46-.42l-1.56-7.28c-.07-.32.06-.53.36-.53h.5c.24,0,.39.14.45.43l1.02,5.26c.09.46.11.87.11.87h.02s.04-.39.15-.87l1.17-5.27c.07-.28.22-.42.47-.42h.34c.25,0,.4.14.45.42l1.16,5.27c.11.47.15.87.15.87h.02s.03-.41.12-.87l1.08-5.26c.05-.29.2-.43.46-.43h.47c.3,0,.44.21.37.53Z"/>
      <path class="cls-1" d="M38.56,0C17.3,0,0,17.3,0,38.56s17.3,38.56,38.56,38.56,38.56-17.3,38.56-38.56S59.82,0,38.56,0ZM70.75,39.95h-12.56c-.1,6.1-.94,12-2.41,17.23h8.23c.68,0,1.22.55,1.22,1.22s-.55,1.22-1.22,1.22h-8.98c-1.31,3.94-2.99,7.42-4.98,10.21-.24.33-.61.51-1,.51-.25,0-.49-.07-.71-.23-.55-.39-.68-1.16-.28-1.71,1.73-2.42,3.21-5.41,4.4-8.79h-12.68v11.3c0,.67-.55,1.22-1.22,1.22s-1.22-.55-1.22-1.22v-11.3h-12.68c1.19,3.38,2.66,6.37,4.4,8.79.39.55.27,1.31-.28,1.71-.22.15-.46.23-.71.23-.38,0-.76-.18-1-.51-1.99-2.79-3.67-6.28-4.98-10.21h-8.98c-.68,0-1.22-.55-1.22-1.22s.55-1.22,1.22-1.22h8.23c-1.47-5.23-2.31-11.13-2.41-17.23H6.37c-.67,0-1.22-.55-1.22-1.22s.55-1.22,1.22-1.22h12.56c.1-6.1.94-12,2.41-17.23h-8.23c-.68,0-1.22-.55-1.22-1.22s.55-1.22,1.22-1.22h8.98c1.31-3.94,2.99-7.42,4.98-10.21.39-.55,1.16-.68,1.71-.28.55.39.68,1.16.28,1.7-1.73,2.42-3.21,5.41-4.39,8.79h12.68V6.53c0-.67.55-1.22,1.22-1.22s1.22.55,1.22,1.22v11.3h12.68c-1.19-3.38-2.66-6.37-4.4-8.79-.39-.55-.27-1.31.28-1.7.55-.39,1.31-.27,1.71.28,1.99,2.79,3.67,6.27,4.98,10.21h8.98c.68,0,1.22.55,1.22,1.22s-.55,1.22-1.22,1.22h-8.23c1.47,5.23,2.31,11.13,2.41,17.23h12.56c.67,0,1.22.55,1.22,1.22s-.55,1.22-1.22,1.22Z"/>
    </g>
  </g>
</svg>